<?xml version="1.0" encoding="iso-8859-1"?>
<!-- Generator: Adobe Illustrator 25.2.1, SVG Export Plug-In . SVG Version: 6.00 Build 0)  -->
<svg version="1.1" id="Layer_1" xmlns="http://www.w3.org/2000/svg" xmlns:xlink="http://www.w3.org/1999/xlink" x="0px" y="0px"
	 viewBox="0 0 70 70" style="enable-background:new 0 0 70 70;" xml:space="preserve">
<g>
	<g>
		<g>
			<path style="fill:#FFA522;" d="M45.878,65.667c-3.43,0.741-6.924,1.113-10.417,1.12c-3.494,0.006-6.99-0.354-10.423-1.083
				c-9.446-2.006-14.541-5.888-17.145-10.146c-5.108-8.346-0.649-18.149-0.649-18.149S6.141,5.905,12.005,3.59
				c5.864-2.317,14.5,9.637,14.5,9.637c0.041-0.006,0.084-0.012,0.125-0.018c5.792-0.851,11.679-0.861,17.474-0.03
				c0.041,0.006,0.082,0.012,0.124,0.017c0,0,8.595-11.984,14.467-9.687c5.872,2.295,4.88,33.801,4.88,33.801
				S73.821,59.629,45.878,65.667z"/>
		</g>
	</g>
</g>
<g>
	<g>
		<g>
			<path style="fill:#FFFFFF;" d="M62.328,42.741c-2.807-2.257-6.534-0.947-9.463,0.826c-2.992,1.812-6.751,1.817-9.78,0.068
				c-2.311-1.335-5.1-2.531-7.669-2.527c-2.569,0.004-5.354,1.211-7.661,2.553c-3.023,1.759-6.782,1.768-9.78-0.034
				c-2.935-1.763-6.667-3.06-9.466-0.793c-1.731,1.402-2.211,3.672-2.095,6.046c0.243,4.978,2.894,9.558,7.048,12.312
				c2.833,1.878,6.6,3.454,11.575,4.511c3.433,0.729,6.928,1.089,10.423,1.083s6.988-0.379,10.419-1.12
				c4.971-1.074,8.733-2.663,11.559-4.551c4.144-2.768,6.78-7.358,7.005-12.336C64.552,46.405,64.064,44.137,62.328,42.741z"/>
		</g>
	</g>
</g>
<g>
	<g>
		<g>
			
				<ellipse transform="matrix(0.4985 -0.8669 0.8669 0.4985 -12.1344 36.8386)" style="fill:#FFFFFF;" cx="25.772" cy="28.907" rx="2.328" ry="3.302"/>
		</g>
	</g>
</g>
<g>
	<g>
		<g>
			
				<ellipse transform="matrix(0.8652 -0.5015 0.5015 0.8652 -8.4076 26.4779)" style="fill:#FFFFFF;" cx="45.034" cy="28.873" rx="3.302" ry="2.328"/>
		</g>
	</g>
</g>
<g style="opacity:0.25;">
	<g>
		<g>
			<path style="fill:#000072;" d="M65.388,45.468c-0.284,6.77-4.054,15.094-19.514,18.435c-3.43,0.741-6.924,1.113-10.417,1.12
				c-3.494,0.006-6.99-0.354-10.423-1.083c-9.446-2.006-14.541-5.888-17.145-10.146c-1.665-2.721-2.315-5.597-2.431-8.239
				c0.03-0.788,0.103-1.545,0.202-2.258c0.315,2.024,0.991,4.12,2.221,6.131c2.604,4.258,7.699,8.14,17.145,10.146
				c3.433,0.729,6.928,1.089,10.423,1.083c3.492-0.006,6.986-0.379,10.417-1.12c13.898-3.003,18.349-10.033,19.312-16.342
				C65.282,43.912,65.356,44.674,65.388,45.468z"/>
		</g>
	</g>
</g>
<g style="opacity:0.6;">
	<g>
		<g>
			<path style="fill:#FFFFFF;" d="M58.695,3.509c-5.872-2.297-14.467,9.687-14.467,9.687c-0.041-0.006-0.082-0.012-0.124-0.017
				c-5.795-0.831-11.682-0.82-17.474,0.03c-0.041,0.006-0.084,0.012-0.125,0.018c0,0-8.636-11.954-14.5-9.637
				c-0.564,0.223-1.063,0.716-1.505,1.424c5.388-1.853,12.831,7.12,14.844,9.716c0.329,0.425,0.86,0.636,1.393,0.565
				c0.358-0.047,0.717-0.092,1.076-0.133c0.548,0.453,1.838,0.769,3.342,0.767c1.936-0.003,3.512-0.534,3.609-1.198
				c3.1-0.033,6.206,0.144,9.234,0.535c0.533,0.069,1.063-0.144,1.391-0.57c2.005-2.604,9.421-11.609,14.816-9.766
				C59.761,4.222,59.26,3.729,58.695,3.509z"/>
		</g>
	</g>
</g>
<g>
	<g>
		<g>
			<g>
				<path style="fill:#FF6477;" d="M13.624,9.174c1.306,1.024,3.369,3.022,5.314,6.515c0.886,1.59,0.61,3.573-0.683,4.854
					c-1.705,1.688-4.187,4.276-6.398,7.085c-0.697,0.886-2.12,0.383-2.096-0.744c0.094-4.446,0.488-11.994,2.009-17.117
					C12.008,8.968,12.969,8.66,13.624,9.174z"/>
			</g>
		</g>
	</g>
	<g style="opacity:0.25;">
		<g>
			<g>
				<path style="fill:#000072;" d="M18.255,20.542c-1.663,1.645-4.062,4.144-6.228,6.87c-0.075-0.155-0.114-0.335-0.111-0.533
					c0.094-4.445,0.489-11.993,2.01-17.117c0.027-0.09,0.064-0.177,0.109-0.253c1.303,1.101,3.151,3.036,4.903,6.179
					C19.823,17.278,19.548,19.262,18.255,20.542z"/>
			</g>
		</g>
	</g>
	<g>
		<g>
			<g>
				<path d="M10.948,28.79c-0.216,0-0.436-0.037-0.652-0.114c-0.773-0.277-1.261-0.986-1.243-1.808
					C9.14,22.67,9.523,14.841,11.091,9.564c0.178-0.601,0.64-1.073,1.235-1.262c0.595-0.19,1.243-0.072,1.736,0.314l0,0
					c1.416,1.111,3.52,3.18,5.496,6.728c1.037,1.862,0.707,4.207-0.804,5.702c-1.682,1.665-4.148,4.235-6.34,7.019
					C12.046,28.534,11.509,28.789,10.948,28.79z M12.9,9.631c-0.062,0-0.113,0.012-0.143,0.022
					c-0.071,0.023-0.242,0.098-0.307,0.315c-1.52,5.117-1.893,12.804-1.98,16.93c-0.006,0.299,0.21,0.409,0.304,0.442
					c0.074,0.027,0.332,0.094,0.526-0.152c2.236-2.841,4.745-5.456,6.456-7.15c1.06-1.049,1.291-2.696,0.562-4.004
					c-1.861-3.342-3.818-5.272-5.132-6.302l0,0C13.085,9.653,12.982,9.631,12.9,9.631z"/>
			</g>
		</g>
	</g>
</g>
<g>
	<g>
		<g>
			<g>
				<path style="fill:#FF6477;" d="M57.097,9.098c-1.302,1.028-3.358,3.034-5.292,6.533c-0.88,1.593-0.598,3.575,0.7,4.851
					c1.711,1.682,4.202,4.262,6.423,7.062c0.7,0.883,2.121,0.376,2.094-0.751c-0.109-4.446-0.529-11.993-2.069-17.11
					C58.713,8.886,57.751,8.582,57.097,9.098z"/>
			</g>
		</g>
	</g>
	<g style="opacity:0.25;">
		<g>
			<g>
				<path style="fill:#000072;" d="M52.506,20.482c1.669,1.639,4.076,4.13,6.252,6.849c0.074-0.155,0.113-0.335,0.109-0.533
					c-0.11-4.445-0.53-11.992-2.07-17.11c-0.028-0.09-0.065-0.176-0.11-0.253c-1.299,1.106-3.14,3.047-4.881,6.196
					C50.926,17.224,51.208,19.207,52.506,20.482z"/>
			</g>
		</g>
	</g>
	<g>
		<g>
			<g>
				<path d="M59.842,28.705c-0.562,0.001-1.099-0.252-1.469-0.72c-2.201-2.776-4.675-5.337-6.364-6.997
					c-1.516-1.49-1.855-3.834-0.824-5.7c1.964-3.556,4.06-5.632,5.473-6.747l0,0c0.491-0.388,1.14-0.507,1.735-0.32
					c0.596,0.188,1.059,0.658,1.24,1.258c1.586,5.272,1.996,13.1,2.099,17.297c0.02,0.821-0.465,1.533-1.237,1.812
					C60.278,28.667,60.058,28.705,59.842,28.705z M57.537,9.655c-1.31,1.035-3.26,2.971-5.11,6.32
					c-0.724,1.311-0.487,2.957,0.576,4.002c1.717,1.688,4.235,4.295,6.481,7.128c0.195,0.246,0.452,0.177,0.527,0.15
					c0.093-0.034,0.309-0.145,0.302-0.443c-0.101-4.126-0.501-11.811-2.039-16.923c-0.065-0.216-0.237-0.291-0.308-0.314
					C57.896,9.553,57.713,9.516,57.537,9.655L57.537,9.655z"/>
			</g>
		</g>
	</g>
</g>
<g>
	<g>
		<g>
			<path d="M35.462,67.489c-3.556,0.006-7.112-0.358-10.57-1.092c-9.205-1.955-15.352-5.88-18.271-11.665
				c-3.93-7.789-0.638-16.178-0.091-17.461C6.494,36.099,6.3,28.79,6.717,21.327c0.268-4.779,0.731-8.691,1.377-11.629
				c0.863-3.925,2.057-6.139,3.65-6.768c5.78-2.282,13.545,7.501,15.078,9.535c5.67-0.804,11.415-0.815,17.086-0.03
				c1.527-2.039,9.257-11.849,15.045-9.587c1.595,0.623,2.796,2.833,3.674,6.756c0.656,2.936,1.133,6.847,1.418,11.625
				c0.444,7.461,0.275,14.77,0.243,15.943c0.552,1.281,3.873,9.659-0.03,17.461c-2.899,5.795-9.032,9.741-18.231,11.728
				C42.572,67.106,39.017,67.483,35.462,67.489z M13.595,4.004c-0.463,0.001-0.908,0.078-1.33,0.245
				c-0.975,0.385-3.328,2.826-4.132,17.149c-0.451,8.04-0.184,15.907-0.182,15.985c0.004,0.11-0.018,0.219-0.063,0.318
				c-0.039,0.086-3.872,8.736,0.003,16.402c2.718,5.376,8.537,9.045,17.294,10.905c6.722,1.428,13.825,1.415,20.542-0.036l0,0
				c8.757-1.892,14.565-5.585,17.261-10.976c3.848-7.693-0.02-16.305-0.059-16.391c-0.046-0.1-0.068-0.209-0.064-0.318
				c0.002-0.078,0.242-7.946-0.237-15.985C61.776,6.983,59.414,4.55,58.438,4.169c-4.392-1.718-11.33,6.234-13.632,9.441
				c-0.155,0.216-0.416,0.326-0.679,0.288l-0.124-0.018c-5.73-0.821-11.54-0.811-17.269,0.03l-0.123,0.018
				c-0.262,0.038-0.524-0.071-0.68-0.286C23.84,10.75,17.948,3.997,13.595,4.004z M45.878,65.666h0.002H45.878z"/>
		</g>
	</g>
</g>
<g>
	<path style="fill-rule:evenodd;clip-rule:evenodd;" d="M28.215,32.512c-1.203-0.534-2.436-1.43-3.695-2.687
		c-2.18,0.103-3.92,2.435-3.915,5.293c0.005,2.921,1.831,5.286,4.077,5.282c2.247-0.004,4.064-2.375,4.059-5.296
		C28.739,34.161,28.548,33.277,28.215,32.512"/>
</g>
<g>
	<path d="M48.718,27.451c-1.464,1.952-2.904,3.461-4.32,4.529c-2.083,1.571-4.34,1.849-4.593,0.123
		c1.122-0.13,2.29-0.654,3.504-1.57C46.302,28.277,47.236,26.825,48.718,27.451"/>
</g>
<g>
	<path style="fill-rule:evenodd;clip-rule:evenodd;" d="M41.886,32.443c1.201-0.538,2.431-1.439,3.686-2.7
		c2.18,0.095,3.928,2.421,3.933,5.279c0.005,2.921-1.812,5.293-4.059,5.296c-2.247,0.004-4.073-2.361-4.078-5.282
		C41.367,34.095,41.555,33.21,41.886,32.443"/>
</g>
<g>
	<path d="M22.026,27.542c1.471,1.947,2.917,3.451,4.336,4.514c2.089,1.563,4.347,1.834,4.594,0.108
		c-1.122-0.127-2.292-0.646-3.51-1.557C24.445,28.359,23.505,26.911,22.026,27.542"/>
</g>
<path d="M30.262,54.884c0.021,0.001,0.044,0.001,0.065,0.001c0.214,0,0.464-0.037,0.737-0.101c1.426-0.333,3.489-1.405,4.376-1.905
	c0.891,0.498,2.968,1.568,4.395,1.893c0.268,0.061,0.514,0.096,0.724,0.096c0.022,0,0.045,0,0.066-0.001
	c1.03-0.046,2.296-0.772,3.077-1.766c0.685-0.872,0.722-1.51,0.296-2.699c0,0-0.8,1.605-1.138,2.037
	c-0.664,0.846-1.671,1.33-2.281,1.357c-0.013,0-0.024,0.001-0.037,0.001c-0.869,0.002-3.026-1.106-4.559-1.978l-0.005-2.621
	c1.352-0.232,2.285-0.842,2.927-1.533c0.614-0.662,0.963-1.399,1.154-1.952c0.181-0.525,0.017-1.105-0.411-1.461
	c-1.716-1.428-3.621-1.482-4.226-1.458c-0.604-0.022-2.51,0.038-4.222,1.473c-0.426,0.357-0.588,0.938-0.405,1.463
	c0.199,0.567,0.562,1.327,1.209,2c0.642,0.668,1.565,1.25,2.883,1.472l0.005,2.621c-1.529,0.877-3.683,1.992-4.551,1.993
	c-0.013,0-0.025-0.001-0.037-0.001c-0.609-0.025-1.618-0.506-2.285-1.349c-0.308-0.389-0.997-1.74-1.125-1.992
	c-0.013-0.026-0.021-0.041-0.021-0.041c-0.422,1.191-0.383,1.829,0.305,2.698C27.963,54.12,29.231,54.842,30.262,54.884z
	 M32.538,44.529c0.902-0.758,2.072-0.916,2.756-0.937c0.021-0.001,0.044-0.002,0.067-0.001c0.021-0.001,0.043-0.001,0.063-0.001
	c0.021,0,0.043,0,0.063,0.001c0.021,0,0.044,0.001,0.067,0.001c0.685,0.018,1.854,0.173,2.758,0.927
	c1.044,0.87-1.46,0.817-2.691,0.745c-0.07-0.003-0.135-0.008-0.195-0.011c-0.061,0.004-0.126,0.008-0.196,0.012
	C33.999,45.341,31.496,45.403,32.538,44.529z"/>
</svg>
